<svg width="70" height="38" viewBox="0 0 70 38" fill="none" xmlns="http://www.w3.org/2000/svg">
<path fill-rule="evenodd" clip-rule="evenodd" d="M30.7821 7.10184H28.3489V8.40383H30.7821V15.9081C30.7821 16.5078 30.7596 16.9892 30.7145 17.3521C30.6694 17.6994 30.5793 17.9755 30.4441 18.1807C30.309 18.3701 30.1062 18.5042 29.8358 18.5831C29.6716 18.6215 29.474 18.6511 29.2431 18.672C28.76 18.6247 28.3598 18.5556 28.0426 18.4647C27.7272 18.3701 27.4418 18.2044 27.1865 17.9676C26.9462 17.7151 26.7134 17.36 26.4881 16.9024C26.2778 16.4447 26.015 15.8134 25.6995 15.0086L20.315 1.18364H18.6478L12.7225 16.784C12.5873 17.1154 12.4447 17.3995 12.2945 17.6362C12.1443 17.8572 11.964 18.0386 11.7537 18.1807C11.5585 18.3227 11.3257 18.4332 11.0553 18.5121C10.8602 18.5724 10.4291 18.6235 10.0757 18.6654C9.96666 18.6783 9.86483 18.6903 9.77983 18.7015L9.75197 19.6484H11.3409C11.5342 19.7394 11.6308 19.9263 11.6308 20.2091C11.6308 20.3444 11.6191 20.486 11.5957 20.6336C11.5723 20.7813 11.5254 20.9782 11.4551 21.2243C11.3849 21.4704 11.2795 21.7843 11.1389 22.1657C11.0101 22.5472 10.8344 23.0395 10.6119 23.6425L8.32807 29.7893L5.51723 21.7043C5.40011 21.372 5.31227 21.089 5.25372 20.8551C5.19516 20.6213 5.16588 20.4183 5.16588 20.246C5.16588 20.1106 5.18931 19.9999 5.23617 19.9137C5.283 19.8153 5.36498 19.7415 5.4821 19.6922C5.59922 19.6307 5.75735 19.5876 5.95642 19.563C6.16726 19.5384 6.42492 19.5199 6.72941 19.5076V18.7508H0.0888062V19.5076C0.428449 19.5076 0.721244 19.5507 0.967193 19.6368C1.22485 19.7107 1.45909 19.8583 1.6699 20.0799C1.88072 20.2891 2.07982 20.5783 2.2672 20.9474C2.4546 21.3166 2.66541 21.7904 2.89964 22.3688L7.09834 33.1489H8.39836L13.0187 20.9843C13.2712 20.3129 13.6591 19.8675 14.1827 19.6484H16.3047V18.7015C15.6288 18.7015 15.1182 18.6384 14.7727 18.5121C14.4423 18.3858 14.277 18.086 14.277 17.6125C14.277 16.9655 14.63 15.8055 15.3359 14.1327H21.7118L22.23 15.553C22.4103 16.058 22.5529 16.4841 22.6581 16.8314C22.7632 17.1786 22.8158 17.4626 22.8158 17.6836C22.8158 18.0623 22.6581 18.3148 22.3426 18.4411C22.0272 18.5674 21.509 18.6463 20.7881 18.6778V19.6484H36.3694V18.7015C35.8738 18.6857 35.4683 18.6384 35.1529 18.5595C34.8374 18.4647 34.5821 18.3069 34.3869 18.086C34.2066 17.8651 34.0789 17.5652 34.0038 17.1865C33.9438 16.8077 33.9137 16.3184 33.9137 15.7187V8.40383H37.7212C38.1718 8.40383 38.5212 8.47041 38.9459 8.73526C39.2406 8.91902 39.407 9.0527 39.5993 9.35074C39.8357 9.71719 39.8511 9.99684 39.8737 10.4069C39.8787 10.4975 39.884 10.5945 39.8922 10.7001C39.9372 11.284 39.9598 12.0652 39.9598 13.0437V15.9318C39.9598 16.5315 39.9372 17.0128 39.8922 17.3758C39.8621 17.723 39.7795 17.9913 39.6444 18.1807C39.5092 18.3701 39.3064 18.4963 39.0361 18.5595C38.7657 18.6226 36.82 18.6699 36.3694 18.7015V19.6484H45.4794V18.7015C44.954 18.7015 44.5334 18.6778 44.2181 18.6305C43.9023 18.5674 43.6621 18.4411 43.4967 18.2517C43.3317 18.0623 43.219 17.794 43.1588 17.4468C43.1137 17.0838 43.0916 16.5946 43.0916 15.9791V14.8428C43.0916 14.2589 43.1287 13.675 43.2039 13.091C43.2791 12.4913 43.3769 11.9548 43.4967 11.4813C43.6621 10.8184 43.8722 10.2898 44.1278 9.8952C44.383 9.50065 44.6533 9.30338 44.939 9.30338C45.0889 9.30338 45.2318 9.35864 45.3667 9.4691C45.517 9.56381 45.6599 9.67427 45.7948 9.80053C45.9451 9.911 46.1105 10.0136 46.2906 10.1083C46.471 10.203 46.6736 10.2503 46.8987 10.2503C47.3794 10.2503 47.7549 10.0767 48.0252 9.72952C48.3109 9.38229 48.4533 8.95619 48.4533 8.45119C48.4533 7.99349 48.2733 7.61474 47.9128 7.31491C47.5524 7.01503 47.0867 6.86511 46.5157 6.86511C45.7797 6.86511 45.0814 7.10974 44.4206 7.59894C43.7599 8.0882 43.2265 8.75102 42.8209 9.58746H42.7307L42.3702 6.86511L37.7212 7.10184H33.9137V5.63412C33.9137 4.29267 34.0865 3.24317 34.4319 2.48564C34.7773 1.71233 35.2505 1.32568 35.8513 1.32568C36.0615 1.32568 36.2643 1.37302 36.4596 1.46771C36.6548 1.5624 36.8426 1.72022 37.0228 1.94117C37.4283 2.44619 37.7287 2.79339 37.924 2.98277C38.1343 3.17215 38.3746 3.26684 38.6449 3.26684C39.0355 3.26684 39.3584 3.14848 39.6137 2.91175C39.8691 2.67502 39.9967 2.37517 39.9967 2.01218C39.9967 1.72811 39.9066 1.45982 39.7264 1.20731C39.5612 0.954801 39.3208 0.741747 39.0054 0.568148C38.69 0.394546 38.3145 0.260401 37.8789 0.16571C37.4584 0.0552366 36.9928 0 36.4821 0C35.626 0 34.845 0.142037 34.139 0.42611C33.4481 0.694402 32.8548 1.08895 32.3592 1.60975C31.8635 2.11477 31.473 2.72237 31.1877 3.43255C30.9173 4.14273 30.7821 4.92394 30.7821 5.77614V7.10184ZM21.2162 12.7123H15.8541L18.5351 5.53941H18.6253L21.2162 12.7123Z" fill="url(#paint0_linear_486_2678)"/>
<path fill-rule="evenodd" clip-rule="evenodd" d="M30.7821 7.10184H28.3489V8.40383H30.7821V15.9081C30.7821 16.5078 30.7596 16.9892 30.7145 17.3521C30.6694 17.6994 30.5793 17.9755 30.4441 18.1807C30.309 18.3701 30.1062 18.5042 29.8358 18.5831C29.6716 18.6215 29.474 18.6511 29.2431 18.672C28.76 18.6247 28.3598 18.5556 28.0426 18.4647C27.7272 18.3701 27.4418 18.2044 27.1865 17.9676C26.9462 17.7151 26.7134 17.36 26.4881 16.9024C26.2778 16.4447 26.015 15.8134 25.6995 15.0086L20.315 1.18364H18.6478L12.7225 16.784C12.5873 17.1154 12.4447 17.3995 12.2945 17.6362C12.1443 17.8572 11.964 18.0386 11.7537 18.1807C11.5585 18.3227 11.3257 18.4332 11.0553 18.5121C10.8602 18.5724 10.4291 18.6235 10.0757 18.6654C9.96666 18.6783 9.86483 18.6903 9.77983 18.7015L9.75197 19.6484H11.3409C11.5342 19.7394 11.6308 19.9263 11.6308 20.2091C11.6308 20.3444 11.6191 20.486 11.5957 20.6336C11.5723 20.7813 11.5254 20.9782 11.4551 21.2243C11.3849 21.4704 11.2795 21.7843 11.1389 22.1657C11.0101 22.5472 10.8344 23.0395 10.6119 23.6425L8.32807 29.7893L5.51723 21.7043C5.40011 21.372 5.31227 21.089 5.25372 20.8551C5.19516 20.6213 5.16588 20.4183 5.16588 20.246C5.16588 20.1106 5.18931 19.9999 5.23617 19.9137C5.283 19.8153 5.36498 19.7415 5.4821 19.6922C5.59922 19.6307 5.75735 19.5876 5.95642 19.563C6.16726 19.5384 6.42492 19.5199 6.72941 19.5076V18.7508H0.0888062V19.5076C0.428449 19.5076 0.721244 19.5507 0.967193 19.6368C1.22485 19.7107 1.45909 19.8583 1.6699 20.0799C1.88072 20.2891 2.07982 20.5783 2.2672 20.9474C2.4546 21.3166 2.66541 21.7904 2.89964 22.3688L7.09834 33.1489H8.39836L13.0187 20.9843C13.2712 20.3129 13.6591 19.8675 14.1827 19.6484H16.3047V18.7015C15.6288 18.7015 15.1182 18.6384 14.7727 18.5121C14.4423 18.3858 14.277 18.086 14.277 17.6125C14.277 16.9655 14.63 15.8055 15.3359 14.1327H21.7118L22.23 15.553C22.4103 16.058 22.5529 16.4841 22.6581 16.8314C22.7632 17.1786 22.8158 17.4626 22.8158 17.6836C22.8158 18.0623 22.6581 18.3148 22.3426 18.4411C22.0272 18.5674 21.509 18.6463 20.7881 18.6778V19.6484H36.3694V18.7015C35.8738 18.6857 35.4683 18.6384 35.1529 18.5595C34.8374 18.4647 34.5821 18.3069 34.3869 18.086C34.2066 17.8651 34.0789 17.5652 34.0038 17.1865C33.9438 16.8077 33.9137 16.3184 33.9137 15.7187V8.40383H37.7212C38.1718 8.40383 38.5212 8.47041 38.9459 8.73526C39.2406 8.91902 39.407 9.0527 39.5993 9.35074C39.8357 9.71719 39.8511 9.99684 39.8737 10.4069C39.8787 10.4975 39.884 10.5945 39.8922 10.7001C39.9372 11.284 39.9598 12.0652 39.9598 13.0437V15.9318C39.9598 16.5315 39.9372 17.0128 39.8922 17.3758C39.8621 17.723 39.7795 17.9913 39.6444 18.1807C39.5092 18.3701 39.3064 18.4963 39.0361 18.5595C38.7657 18.6226 36.82 18.6699 36.3694 18.7015V19.6484H45.4794V18.7015C44.954 18.7015 44.5334 18.6778 44.2181 18.6305C43.9023 18.5674 43.6621 18.4411 43.4967 18.2517C43.3317 18.0623 43.219 17.794 43.1588 17.4468C43.1137 17.0838 43.0916 16.5946 43.0916 15.9791V14.8428C43.0916 14.2589 43.1287 13.675 43.2039 13.091C43.2791 12.4913 43.3769 11.9548 43.4967 11.4813C43.6621 10.8184 43.8722 10.2898 44.1278 9.8952C44.383 9.50065 44.6533 9.30338 44.939 9.30338C45.0889 9.30338 45.2318 9.35864 45.3667 9.4691C45.517 9.56381 45.6599 9.67427 45.7948 9.80053C45.9451 9.911 46.1105 10.0136 46.2906 10.1083C46.471 10.203 46.6736 10.2503 46.8987 10.2503C47.3794 10.2503 47.7549 10.0767 48.0252 9.72952C48.3109 9.38229 48.4533 8.95619 48.4533 8.45119C48.4533 7.99349 48.2733 7.61474 47.9128 7.31491C47.5524 7.01503 47.0867 6.86511 46.5157 6.86511C45.7797 6.86511 45.0814 7.10974 44.4206 7.59894C43.7599 8.0882 43.2265 8.75102 42.8209 9.58746H42.7307L42.3702 6.86511L37.7212 7.10184H33.9137V5.63412C33.9137 4.29267 34.0865 3.24317 34.4319 2.48564C34.7773 1.71233 35.2505 1.32568 35.8513 1.32568C36.0615 1.32568 36.2643 1.37302 36.4596 1.46771C36.6548 1.5624 36.8426 1.72022 37.0228 1.94117C37.4283 2.44619 37.7287 2.79339 37.924 2.98277C38.1343 3.17215 38.3746 3.26684 38.6449 3.26684C39.0355 3.26684 39.3584 3.14848 39.6137 2.91175C39.8691 2.67502 39.9967 2.37517 39.9967 2.01218C39.9967 1.72811 39.9066 1.45982 39.7264 1.20731C39.5612 0.954801 39.3208 0.741747 39.0054 0.568148C38.69 0.394546 38.3145 0.260401 37.8789 0.16571C37.4584 0.0552366 36.9928 0 36.4821 0C35.626 0 34.845 0.142037 34.139 0.42611C33.4481 0.694402 32.8548 1.08895 32.3592 1.60975C31.8635 2.11477 31.473 2.72237 31.1877 3.43255C30.9173 4.14273 30.7821 4.92394 30.7821 5.77614V7.10184ZM21.2162 12.7123H15.8541L18.5351 5.53941H18.6253L21.2162 12.7123Z" fill="url(#paint1_linear_486_2678)"/>
<path fill-rule="evenodd" clip-rule="evenodd" d="M57.9006 7.77027C57.0743 7.44102 56.1934 7.27637 55.2583 7.27637C54.3383 7.27637 53.4652 7.43317 52.6389 7.74677C51.8126 8.06037 51.0878 8.49942 50.4644 9.06393C49.8405 9.62838 49.3498 10.3026 48.9913 11.0866C48.6323 11.8706 48.4532 12.7252 48.4532 13.6504C48.4532 14.6069 48.6323 15.4928 48.9913 16.3082C49.3498 17.1078 49.8405 17.7978 50.4644 18.3779C51.0878 18.9581 51.8126 19.4128 52.6389 19.7421C53.4652 20.0557 54.3383 20.2125 55.2583 20.2125C56.1934 20.2125 57.0743 20.0479 57.9006 19.7186C58.7425 19.3893 59.4752 18.9346 60.0986 18.3544C60.738 17.7742 61.2366 17.0843 61.5951 16.2846C61.9692 15.485 62.1565 14.6069 62.1565 13.6504C62.1565 12.7252 61.9692 11.8785 61.5951 11.1102C61.2366 10.3261 60.738 9.65193 60.0986 9.08743C59.4752 8.52293 58.7425 8.08388 57.9006 7.77027ZM53.972 9.01688C54.3617 8.76598 54.7905 8.64053 55.2583 8.64053C55.7412 8.64053 56.1778 8.76598 56.5675 9.01688C56.9729 9.25208 57.3158 9.59703 57.5967 10.0517C57.8772 10.4908 58.0953 11.0161 58.2513 11.6276C58.4074 12.2391 58.485 12.9212 58.485 13.6739C58.485 14.4422 58.4074 15.14 58.2513 15.7672C58.0953 16.3944 57.8772 16.9354 57.5967 17.3901C57.3158 17.8291 56.9729 18.1741 56.5675 18.425C56.1778 18.6602 55.7412 18.7778 55.2583 18.7778C54.7749 18.7778 54.3383 18.6602 53.9486 18.425C53.5745 18.1741 53.2472 17.8291 52.9662 17.3901C52.7014 16.951 52.4911 16.4179 52.335 15.7907C52.1946 15.1635 52.1248 14.4579 52.1248 13.6739C52.1248 12.9212 52.1946 12.2391 52.335 11.6276C52.4911 11.0004 52.7014 10.4673 52.9662 10.0282C53.2472 9.58918 53.5823 9.25208 53.972 9.01688Z" fill="url(#paint2_linear_486_2678)"/>
<path d="M20.314 29.9567C20.314 30.4757 20.3317 30.891 20.367 31.2024C20.4024 31.5138 20.4732 31.7539 20.5793 31.9225C20.6854 32.0913 20.8387 32.208 21.0392 32.2729C21.2397 32.3248 21.5109 32.3573 21.8529 32.3702V33.1488H16.2811V32.3702C16.6112 32.3573 16.8765 32.3183 17.077 32.2535C17.2893 32.1756 17.4485 32.0588 17.5546 31.9031C17.6725 31.7344 17.7492 31.5073 17.7845 31.2219C17.8317 30.9234 17.8553 30.5471 17.8553 30.0929V27.6989C17.8553 26.9462 17.8435 26.3299 17.8199 25.8498C17.7964 25.3567 17.7669 25.0193 17.7315 24.8376C17.6725 24.5133 17.5369 24.2991 17.3247 24.1953C17.1242 24.0915 16.7527 24.0396 16.2103 24.0396V23.3778L20.314 22.6382V29.9567Z" fill="url(#paint3_linear_486_2678)"/>
<path d="M20.314 29.9567C20.314 30.4757 20.3317 30.891 20.367 31.2024C20.4024 31.5138 20.4732 31.7539 20.5793 31.9225C20.6854 32.0913 20.8387 32.208 21.0392 32.2729C21.2397 32.3248 21.5109 32.3573 21.8529 32.3702V33.1488H16.2811V32.3702C16.6112 32.3573 16.8765 32.3183 17.077 32.2535C17.2893 32.1756 17.4485 32.0588 17.5546 31.9031C17.6725 31.7344 17.7492 31.5073 17.7845 31.2219C17.8317 30.9234 17.8553 30.5471 17.8553 30.0929V27.6989C17.8553 26.9462 17.8435 26.3299 17.8199 25.8498C17.7964 25.3567 17.7669 25.0193 17.7315 24.8376C17.6725 24.5133 17.5369 24.2991 17.3247 24.1953C17.1242 24.0915 16.7527 24.0396 16.2103 24.0396V23.3778L20.314 22.6382V29.9567Z" fill="url(#paint4_linear_486_2678)"/>
<path d="M17.8225 19.0077C17.8225 18.6634 17.9369 18.3765 18.1657 18.147C18.405 17.9071 18.691 17.7871 19.0238 17.7871C19.3671 17.7871 19.6531 17.9071 19.8819 18.147C20.1211 18.3765 20.2407 18.6634 20.2407 19.0077C20.2407 19.3415 20.1211 19.6284 19.8819 19.8683C19.6531 20.0979 19.3671 20.2126 19.0238 20.2126C18.691 20.2126 18.405 20.0979 18.1657 19.8683C17.9369 19.6284 17.8225 19.3415 17.8225 19.0077Z" fill="url(#paint5_linear_486_2678)"/>
<path d="M25.9592 31.2413C25.9358 30.9299 25.9241 30.5082 25.9241 29.9762V27.2901C25.9241 26.8879 25.9592 26.5051 26.0294 26.1417C26.1113 25.7654 26.2049 25.4605 26.3102 25.2269C26.5091 24.8117 26.743 24.4873 27.0121 24.2537C27.2812 24.0201 27.6029 23.9034 27.9773 23.9034C28.3634 23.9034 28.6851 23.9683 28.9425 24.098C29.1999 24.2148 29.4046 24.4159 29.5567 24.7014C29.7205 24.9739 29.8375 25.3372 29.9077 25.7914C29.9779 26.2456 30.013 26.8035 30.013 27.4653V30.1124C30.013 30.5925 29.9954 30.9818 29.9603 31.2802C29.9252 31.5657 29.855 31.7863 29.7497 31.942C29.6444 32.0977 29.4865 32.208 29.2759 32.2729C29.077 32.3248 28.8021 32.3573 28.4511 32.3702V33.1488H33.9439V32.3702C33.6046 32.3443 33.3355 32.3053 33.1367 32.2535C32.9378 32.2015 32.7857 32.0977 32.6804 31.942C32.5868 31.7734 32.5224 31.5398 32.4873 31.2413C32.4639 30.9299 32.4522 30.5082 32.4522 29.9762V27.2317C32.4522 26.4013 32.3762 25.7524 32.2241 25.2853C32.072 24.8052 31.8965 24.4159 31.6976 24.1175C31.3349 23.5855 30.9196 23.2091 30.4517 22.9885C29.9954 22.755 29.3929 22.6382 28.6442 22.6382C28.0124 22.6382 27.4333 22.7874 26.9068 23.0859C26.3804 23.3843 25.9241 23.8061 25.538 24.3511H25.4678L25.2397 22.6382L21.8528 23.3778V24.0396C22.1219 24.0396 22.3442 24.0526 22.5196 24.0785C22.6951 24.0915 22.8414 24.1305 22.9583 24.1953C23.0753 24.2472 23.1631 24.3316 23.2216 24.4484C23.2801 24.5522 23.3269 24.6884 23.362 24.8571C23.3971 25.0258 23.4263 25.3502 23.4497 25.8303C23.4731 26.2974 23.4848 26.9138 23.4848 27.6794V30.1124C23.4848 30.6055 23.4673 30.9948 23.4322 31.2802C23.3971 31.5657 23.321 31.7863 23.2041 31.942C23.0987 32.0977 22.9408 32.2015 22.7302 32.2535C22.5314 32.3053 22.2622 32.3443 21.923 32.3702V33.1488H27.4508V32.3702C27.0999 32.3443 26.8191 32.3053 26.6085 32.2535C26.4096 32.2015 26.2575 32.0977 26.1523 31.942C26.0586 31.7734 25.9943 31.5398 25.9592 31.2413Z" fill="url(#paint6_linear_486_2678)"/>
<path d="M25.9592 31.2413C25.9358 30.9299 25.9241 30.5082 25.9241 29.9762V27.2901C25.9241 26.8879 25.9592 26.5051 26.0294 26.1417C26.1113 25.7654 26.2049 25.4605 26.3102 25.2269C26.5091 24.8117 26.743 24.4873 27.0121 24.2537C27.2812 24.0201 27.6029 23.9034 27.9773 23.9034C28.3634 23.9034 28.6851 23.9683 28.9425 24.098C29.1999 24.2148 29.4046 24.4159 29.5567 24.7014C29.7205 24.9739 29.8375 25.3372 29.9077 25.7914C29.9779 26.2456 30.013 26.8035 30.013 27.4653V30.1124C30.013 30.5925 29.9954 30.9818 29.9603 31.2802C29.9252 31.5657 29.855 31.7863 29.7497 31.942C29.6444 32.0977 29.4865 32.208 29.2759 32.2729C29.077 32.3248 28.8021 32.3573 28.4511 32.3702V33.1488H33.9439V32.3702C33.6046 32.3443 33.3355 32.3053 33.1367 32.2535C32.9378 32.2015 32.7857 32.0977 32.6804 31.942C32.5868 31.7734 32.5224 31.5398 32.4873 31.2413C32.4639 30.9299 32.4522 30.5082 32.4522 29.9762V27.2317C32.4522 26.4013 32.3762 25.7524 32.2241 25.2853C32.072 24.8052 31.8965 24.4159 31.6976 24.1175C31.3349 23.5855 30.9196 23.2091 30.4517 22.9885C29.9954 22.755 29.3929 22.6382 28.6442 22.6382C28.0124 22.6382 27.4333 22.7874 26.9068 23.0859C26.3804 23.3843 25.9241 23.8061 25.538 24.3511H25.4678L25.2397 22.6382L21.8528 23.3778V24.0396C22.1219 24.0396 22.3442 24.0526 22.5196 24.0785C22.6951 24.0915 22.8414 24.1305 22.9583 24.1953C23.0753 24.2472 23.1631 24.3316 23.2216 24.4484C23.2801 24.5522 23.3269 24.6884 23.362 24.8571C23.3971 25.0258 23.4263 25.3502 23.4497 25.8303C23.4731 26.2974 23.4848 26.9138 23.4848 27.6794V30.1124C23.4848 30.6055 23.4673 30.9948 23.4322 31.2802C23.3971 31.5657 23.321 31.7863 23.2041 31.942C23.0987 32.0977 22.9408 32.2015 22.7302 32.2535C22.5314 32.3053 22.2622 32.3443 21.923 32.3702V33.1488H27.4508V32.3702C27.0999 32.3443 26.8191 32.3053 26.6085 32.2535C26.4096 32.2015 26.2575 32.0977 26.1523 31.942C26.0586 31.7734 25.9943 31.5398 25.9592 31.2413Z" fill="url(#paint7_linear_486_2678)"/>
<path d="M33.944 24.2506V23.425C34.6789 23.2171 35.2913 22.9051 35.7812 22.4893C36.2834 22.0612 36.6569 21.5719 36.9019 21.0215H37.8389V23.2415H39.9516V24.2506H37.8389V29.8833C37.8389 30.6417 37.9185 31.1799 38.0777 31.4979C38.2492 31.8159 38.5309 31.9749 38.9228 31.9749C39.4005 31.9749 39.7618 31.7547 40.0067 31.3144L40.3926 31.8465C40.0496 32.7149 39.2413 33.1491 37.9675 33.1491C37.1223 33.1491 36.4609 32.9534 35.9833 32.562C35.5178 32.1706 35.2852 31.6202 35.2852 30.9108V24.2506H33.944Z" fill="url(#paint8_linear_486_2678)"/>
<path d="M33.944 24.2506V23.425C34.6789 23.2171 35.2913 22.9051 35.7812 22.4893C36.2834 22.0612 36.6569 21.5719 36.9019 21.0215H37.8389V23.2415H39.9516V24.2506H37.8389V29.8833C37.8389 30.6417 37.9185 31.1799 38.0777 31.4979C38.2492 31.8159 38.5309 31.9749 38.9228 31.9749C39.4005 31.9749 39.7618 31.7547 40.0067 31.3144L40.3926 31.8465C40.0496 32.7149 39.2413 33.1491 37.9675 33.1491C37.1223 33.1491 36.4609 32.9534 35.9833 32.562C35.5178 32.1706 35.2852 31.6202 35.2852 30.9108V24.2506H33.944Z" fill="url(#paint9_linear_486_2678)"/>
<path fill-rule="evenodd" clip-rule="evenodd" d="M46.0718 25.6958V26.4985L43.4885 27.6642C42.3774 28.1356 41.5834 28.6197 41.1071 29.1166C40.6307 29.6007 40.3926 30.123 40.3926 30.6836C40.3926 31.4098 40.6246 32.0022 41.0887 32.4608C41.5528 32.9067 42.1697 33.1297 42.9389 33.1297C43.6597 33.1297 44.3008 32.9577 44.8627 32.6137C45.4246 32.2697 45.8824 31.7665 46.2365 31.104H46.3284C46.3284 31.7537 46.4747 32.257 46.7679 32.6137C47.061 32.9704 47.4883 33.1488 48.0501 33.1488C48.5023 33.1488 48.9051 33.0596 49.2593 32.8813C49.626 32.6902 49.8943 32.4354 50.0655 32.1169L49.7906 31.5626C49.5951 31.7283 49.3816 31.8111 49.1495 31.8111C48.7344 31.8111 48.5266 31.2696 48.5266 30.1867V26.0016C48.5266 24.7913 48.2335 23.9313 47.6473 23.4217C47.061 22.8994 46.084 22.6382 44.7159 22.6382C43.4215 22.6382 42.4506 22.8166 41.8032 23.1733C41.1681 23.53 40.8506 24.0141 40.8506 24.6256C40.8506 25.0206 40.9422 25.3264 41.1254 25.543C41.3086 25.7595 41.5712 25.8678 41.9131 25.8678C42.2672 25.8678 42.5421 25.7786 42.7376 25.6003C42.945 25.4219 43.1039 25.1735 43.2137 24.855C43.3727 24.3963 43.5434 24.0715 43.7268 23.8804C43.9102 23.6765 44.1789 23.5746 44.533 23.5746C45.0579 23.5746 45.4429 23.7466 45.6872 24.0906C45.9433 24.4218 46.0718 24.9569 46.0718 25.6958ZM43.7451 28.8681C44.2704 28.4477 45.0457 27.9954 46.0718 27.5113V29.3267C46.0718 29.607 46.017 29.8746 45.9068 30.1294C45.8092 30.3715 45.6685 30.5817 45.4856 30.76C45.3022 30.9384 45.0827 31.0849 44.8261 31.1996C44.5696 31.3015 44.2948 31.3525 44.0016 31.3525C43.7085 31.3525 43.4641 31.2441 43.269 31.0276C43.0734 30.811 42.9759 30.518 42.9759 30.1485C42.9759 29.7026 43.232 29.2758 43.7451 28.8681Z" fill="url(#paint10_linear_486_2678)"/>
<path fill-rule="evenodd" clip-rule="evenodd" d="M46.0718 25.6958V26.4985L43.4885 27.6642C42.3774 28.1356 41.5834 28.6197 41.1071 29.1166C40.6307 29.6007 40.3926 30.123 40.3926 30.6836C40.3926 31.4098 40.6246 32.0022 41.0887 32.4608C41.5528 32.9067 42.1697 33.1297 42.9389 33.1297C43.6597 33.1297 44.3008 32.9577 44.8627 32.6137C45.4246 32.2697 45.8824 31.7665 46.2365 31.104H46.3284C46.3284 31.7537 46.4747 32.257 46.7679 32.6137C47.061 32.9704 47.4883 33.1488 48.0501 33.1488C48.5023 33.1488 48.9051 33.0596 49.2593 32.8813C49.626 32.6902 49.8943 32.4354 50.0655 32.1169L49.7906 31.5626C49.5951 31.7283 49.3816 31.8111 49.1495 31.8111C48.7344 31.8111 48.5266 31.2696 48.5266 30.1867V26.0016C48.5266 24.7913 48.2335 23.9313 47.6473 23.4217C47.061 22.8994 46.084 22.6382 44.7159 22.6382C43.4215 22.6382 42.4506 22.8166 41.8032 23.1733C41.1681 23.53 40.8506 24.0141 40.8506 24.6256C40.8506 25.0206 40.9422 25.3264 41.1254 25.543C41.3086 25.7595 41.5712 25.8678 41.9131 25.8678C42.2672 25.8678 42.5421 25.7786 42.7376 25.6003C42.945 25.4219 43.1039 25.1735 43.2137 24.855C43.3727 24.3963 43.5434 24.0715 43.7268 23.8804C43.9102 23.6765 44.1789 23.5746 44.533 23.5746C45.0579 23.5746 45.4429 23.7466 45.6872 24.0906C45.9433 24.4218 46.0718 24.9569 46.0718 25.6958ZM43.7451 28.8681C44.2704 28.4477 45.0457 27.9954 46.0718 27.5113V29.3267C46.0718 29.607 46.017 29.8746 45.9068 30.1294C45.8092 30.3715 45.6685 30.5817 45.4856 30.76C45.3022 30.9384 45.0827 31.0849 44.8261 31.1996C44.5696 31.3015 44.2948 31.3525 44.0016 31.3525C43.7085 31.3525 43.4641 31.2441 43.269 31.0276C43.0734 30.811 42.9759 30.518 42.9759 30.1485C42.9759 29.7026 43.232 29.2758 43.7451 28.8681Z" fill="url(#paint11_linear_486_2678)"/>
<path fill-rule="evenodd" clip-rule="evenodd" d="M53.6044 30.9335C53.9136 30.9591 54.1828 30.9847 54.4119 31.0103C54.6525 31.0359 54.8755 31.0679 55.0817 31.1063C55.2994 31.1319 55.5114 31.1639 55.7172 31.2024C55.9349 31.2279 56.164 31.2599 56.4046 31.2984C57.2978 31.4392 57.9962 31.8168 58.5002 32.4313C59.0157 33.0329 59.2734 33.7818 59.2734 34.6779C59.2734 35.7661 58.8723 36.5918 58.071 37.155C57.2692 37.7182 56.0897 37.9999 54.532 37.9999C53.1004 37.9999 51.9952 37.7631 51.2168 37.2894C50.4493 36.8286 50.0654 36.1693 50.0654 35.3116C50.0654 34.6459 50.2202 34.1403 50.5294 33.7946C50.8386 33.4618 51.2282 33.2954 51.6975 33.2954C51.9952 33.2954 52.2815 33.3594 52.5564 33.4874C52.8427 33.6282 53.0833 33.8266 53.2781 34.0827C52.9804 34.1467 52.7341 34.2939 52.5393 34.5243C52.3563 34.7675 52.2644 35.0492 52.2644 35.3692C52.2644 35.8812 52.4649 36.2717 52.8656 36.5405C53.2781 36.8222 53.8793 36.963 54.6696 36.963C56.3874 36.963 57.2464 36.3549 57.2464 35.1388C57.2464 34.7035 57.1144 34.3259 56.851 34.0058C56.599 33.6986 56.2327 33.513 55.7515 33.449L52.7455 32.9881C51.4741 32.7961 50.8386 32.1625 50.8386 31.0871C50.8386 30.5623 50.9877 30.1334 51.2854 29.8006C51.5946 29.4678 52.0295 29.2373 52.5907 29.1093V29.0325C52.3273 28.9173 52.0871 28.7573 51.8694 28.5525C51.6632 28.3476 51.4798 28.1108 51.3197 27.842C51.1592 27.5731 51.0334 27.2851 50.9419 26.9779C50.8615 26.6578 50.8214 26.3314 50.8214 25.9986C50.8214 25.5249 50.9072 25.0833 51.0791 24.6736C51.2625 24.2512 51.5088 23.8927 51.818 23.5983C52.1386 23.3039 52.5107 23.0734 52.9346 22.907C53.3696 22.7278 53.8393 22.6382 54.3433 22.6382C54.8354 22.6382 55.3166 22.7214 55.7862 22.8878C56.2555 23.0543 56.6566 23.2847 56.9886 23.5791C57.2521 23.3999 57.4812 23.2527 57.6756 23.1374C57.8704 23.0094 58.0481 22.9134 58.2082 22.8494C58.3802 22.7726 58.5345 22.7214 58.6722 22.6958C58.8094 22.6574 58.9471 22.6382 59.0843 22.6382C59.5197 22.6382 59.8689 22.747 60.1323 22.9647C60.4072 23.1823 60.5444 23.4703 60.5444 23.8287C60.5444 24.0975 60.4701 24.3216 60.3214 24.5008C60.1723 24.6672 59.9775 24.7504 59.7374 24.7504C59.5654 24.7504 59.4278 24.712 59.3248 24.6352C59.2219 24.5456 59.1186 24.4496 59.0157 24.3472C58.9242 24.232 58.8266 24.136 58.7236 24.0591C58.6207 23.9695 58.4831 23.9247 58.3115 23.9247C58.071 23.9247 57.8418 24.0975 57.6242 24.4432C57.7389 24.6608 57.819 24.8977 57.8647 25.1537C57.9105 25.3969 57.9333 25.685 57.9333 26.0178C57.9333 26.5042 57.8647 26.9523 57.7271 27.3619C57.5898 27.7715 57.3722 28.1364 57.0744 28.4564C56.7881 28.7637 56.416 29.0261 55.9578 29.2437C55.4999 29.4614 54.9445 29.6086 54.2914 29.6854C53.7417 29.7494 53.3582 29.8326 53.1405 29.935C52.9346 30.0374 52.8313 30.191 52.8313 30.3958C52.8313 30.7031 53.089 30.8823 53.6044 30.9335ZM54.429 28.5908C54.7954 28.5908 55.0817 28.3732 55.288 27.938C55.4942 27.5027 55.5971 26.8947 55.5971 26.1138C55.5971 25.3201 55.4942 24.712 55.288 24.2896C55.0817 23.8543 54.7897 23.6367 54.4119 23.6367C54.0223 23.6367 53.7131 23.8543 53.484 24.2896C53.2552 24.7248 53.1405 25.3201 53.1405 26.0754C53.1405 26.8435 53.2552 27.4579 53.484 27.9188C53.7245 28.3668 54.0394 28.5908 54.429 28.5908Z" fill="url(#paint12_linear_486_2678)"/>
<path fill-rule="evenodd" clip-rule="evenodd" d="M53.6044 30.9335C53.9136 30.9591 54.1828 30.9847 54.4119 31.0103C54.6525 31.0359 54.8755 31.0679 55.0817 31.1063C55.2994 31.1319 55.5114 31.1639 55.7172 31.2024C55.9349 31.2279 56.164 31.2599 56.4046 31.2984C57.2978 31.4392 57.9962 31.8168 58.5002 32.4313C59.0157 33.0329 59.2734 33.7818 59.2734 34.6779C59.2734 35.7661 58.8723 36.5918 58.071 37.155C57.2692 37.7182 56.0897 37.9999 54.532 37.9999C53.1004 37.9999 51.9952 37.7631 51.2168 37.2894C50.4493 36.8286 50.0654 36.1693 50.0654 35.3116C50.0654 34.6459 50.2202 34.1403 50.5294 33.7946C50.8386 33.4618 51.2282 33.2954 51.6975 33.2954C51.9952 33.2954 52.2815 33.3594 52.5564 33.4874C52.8427 33.6282 53.0833 33.8266 53.2781 34.0827C52.9804 34.1467 52.7341 34.2939 52.5393 34.5243C52.3563 34.7675 52.2644 35.0492 52.2644 35.3692C52.2644 35.8812 52.4649 36.2717 52.8656 36.5405C53.2781 36.8222 53.8793 36.963 54.6696 36.963C56.3874 36.963 57.2464 36.3549 57.2464 35.1388C57.2464 34.7035 57.1144 34.3259 56.851 34.0058C56.599 33.6986 56.2327 33.513 55.7515 33.449L52.7455 32.9881C51.4741 32.7961 50.8386 32.1625 50.8386 31.0871C50.8386 30.5623 50.9877 30.1334 51.2854 29.8006C51.5946 29.4678 52.0295 29.2373 52.5907 29.1093V29.0325C52.3273 28.9173 52.0871 28.7573 51.8694 28.5525C51.6632 28.3476 51.4798 28.1108 51.3197 27.842C51.1592 27.5731 51.0334 27.2851 50.9419 26.9779C50.8615 26.6578 50.8214 26.3314 50.8214 25.9986C50.8214 25.5249 50.9072 25.0833 51.0791 24.6736C51.2625 24.2512 51.5088 23.8927 51.818 23.5983C52.1386 23.3039 52.5107 23.0734 52.9346 22.907C53.3696 22.7278 53.8393 22.6382 54.3433 22.6382C54.8354 22.6382 55.3166 22.7214 55.7862 22.8878C56.2555 23.0543 56.6566 23.2847 56.9886 23.5791C57.2521 23.3999 57.4812 23.2527 57.6756 23.1374C57.8704 23.0094 58.0481 22.9134 58.2082 22.8494C58.3802 22.7726 58.5345 22.7214 58.6722 22.6958C58.8094 22.6574 58.9471 22.6382 59.0843 22.6382C59.5197 22.6382 59.8689 22.747 60.1323 22.9647C60.4072 23.1823 60.5444 23.4703 60.5444 23.8287C60.5444 24.0975 60.4701 24.3216 60.3214 24.5008C60.1723 24.6672 59.9775 24.7504 59.7374 24.7504C59.5654 24.7504 59.4278 24.712 59.3248 24.6352C59.2219 24.5456 59.1186 24.4496 59.0157 24.3472C58.9242 24.232 58.8266 24.136 58.7236 24.0591C58.6207 23.9695 58.4831 23.9247 58.3115 23.9247C58.071 23.9247 57.8418 24.0975 57.6242 24.4432C57.7389 24.6608 57.819 24.8977 57.8647 25.1537C57.9105 25.3969 57.9333 25.685 57.9333 26.0178C57.9333 26.5042 57.8647 26.9523 57.7271 27.3619C57.5898 27.7715 57.3722 28.1364 57.0744 28.4564C56.7881 28.7637 56.416 29.0261 55.9578 29.2437C55.4999 29.4614 54.9445 29.6086 54.2914 29.6854C53.7417 29.7494 53.3582 29.8326 53.1405 29.935C52.9346 30.0374 52.8313 30.191 52.8313 30.3958C52.8313 30.7031 53.089 30.8823 53.6044 30.9335ZM54.429 28.5908C54.7954 28.5908 55.0817 28.3732 55.288 27.938C55.4942 27.5027 55.5971 26.8947 55.5971 26.1138C55.5971 25.3201 55.4942 24.712 55.288 24.2896C55.0817 23.8543 54.7897 23.6367 54.4119 23.6367C54.0223 23.6367 53.7131 23.8543 53.484 24.2896C53.2552 24.7248 53.1405 25.3201 53.1405 26.0754C53.1405 26.8435 53.2552 27.4579 53.484 27.9188C53.7245 28.3668 54.0394 28.5908 54.429 28.5908Z" fill="url(#paint13_linear_486_2678)"/>
<path fill-rule="evenodd" clip-rule="evenodd" d="M65.3163 33.1488C66.8894 33.1488 68.2025 32.4927 69.2549 31.1804L68.7693 30.5116C68.318 30.9575 67.8494 31.3015 67.3638 31.5436C66.8894 31.7856 66.4092 31.9066 65.9236 31.9066C65.0791 31.9066 64.4079 31.5436 63.9108 30.8174C63.4248 30.0912 63.1818 29.1038 63.1818 27.8553C63.1818 27.5495 63.2049 27.3393 63.2511 27.2247H68.8386C69.1047 27.2247 69.2664 27.2055 69.3246 27.1673C69.3824 27.1163 69.4113 26.9889 69.4113 26.7851C69.4113 25.4729 69.0701 24.4537 68.3873 23.7275C67.705 23.0013 66.7508 22.6382 65.5243 22.6382C64.7957 22.6382 64.1245 22.772 63.5115 23.0395C62.91 23.3071 62.3836 23.6829 61.9326 24.167C61.4929 24.6384 61.1517 25.2053 60.9087 25.8678C60.6657 26.5176 60.5444 27.2374 60.5444 28.0273C60.5444 28.7917 60.6599 29.486 60.8914 30.1103C61.1228 30.7345 61.4467 31.276 61.8629 31.7347C62.2796 32.1806 62.7771 32.5309 63.3555 32.7857C63.9455 33.0278 64.5989 33.1488 65.3163 33.1488ZM66.7739 26.078C66.6464 26.129 66.3514 26.1545 65.8889 26.1545H63.3728C63.4884 25.4538 63.7371 24.8804 64.1187 24.4345C64.5123 23.9759 64.9574 23.7466 65.4549 23.7466C65.8947 23.7466 66.259 23.9249 66.5482 24.2817C66.8374 24.6384 66.9818 25.097 66.9818 25.6576C66.9818 25.8742 66.9125 26.0143 66.7739 26.078Z" fill="url(#paint14_linear_486_2678)"/>
<path fill-rule="evenodd" clip-rule="evenodd" d="M65.3163 33.1488C66.8894 33.1488 68.2025 32.4927 69.2549 31.1804L68.7693 30.5116C68.318 30.9575 67.8494 31.3015 67.3638 31.5436C66.8894 31.7856 66.4092 31.9066 65.9236 31.9066C65.0791 31.9066 64.4079 31.5436 63.9108 30.8174C63.4248 30.0912 63.1818 29.1038 63.1818 27.8553C63.1818 27.5495 63.2049 27.3393 63.2511 27.2247H68.8386C69.1047 27.2247 69.2664 27.2055 69.3246 27.1673C69.3824 27.1163 69.4113 26.9889 69.4113 26.7851C69.4113 25.4729 69.0701 24.4537 68.3873 23.7275C67.705 23.0013 66.7508 22.6382 65.5243 22.6382C64.7957 22.6382 64.1245 22.772 63.5115 23.0395C62.91 23.3071 62.3836 23.6829 61.9326 24.167C61.4929 24.6384 61.1517 25.2053 60.9087 25.8678C60.6657 26.5176 60.5444 27.2374 60.5444 28.0273C60.5444 28.7917 60.6599 29.486 60.8914 30.1103C61.1228 30.7345 61.4467 31.276 61.8629 31.7347C62.2796 32.1806 62.7771 32.5309 63.3555 32.7857C63.9455 33.0278 64.5989 33.1488 65.3163 33.1488ZM66.7739 26.078C66.6464 26.129 66.3514 26.1545 65.8889 26.1545H63.3728C63.4884 25.4538 63.7371 24.8804 64.1187 24.4345C64.5123 23.9759 64.9574 23.7466 65.4549 23.7466C65.8947 23.7466 66.259 23.9249 66.5482 24.2817C66.8374 24.6384 66.9818 25.097 66.9818 25.6576C66.9818 25.8742 66.9125 26.0143 66.7739 26.078Z" fill="url(#paint15_linear_486_2678)"/>
<defs>
<linearGradient id="paint0_linear_486_2678" x1="24.271" y1="0" x2="24.271" y2="33.1489" gradientUnits="userSpaceOnUse">
<stop offset="0.370192" stop-color="#006666"/>
<stop offset="1" stop-color="#00A3A3"/>
</linearGradient>
<linearGradient id="paint1_linear_486_2678" x1="24.271" y1="0" x2="24.271" y2="33.1489" gradientUnits="userSpaceOnUse">
<stop offset="0.370192" stop-color="#006666"/>
<stop offset="1" stop-color="#00A3A3"/>
</linearGradient>
<linearGradient id="paint2_linear_486_2678" x1="55.3049" y1="7.27637" x2="55.3049" y2="20.2125" gradientUnits="userSpaceOnUse">
<stop offset="0.370192" stop-color="#006666"/>
<stop offset="1" stop-color="#00A3A3"/>
</linearGradient>
<linearGradient id="paint3_linear_486_2678" x1="19.0316" y1="22.6382" x2="19.0316" y2="33.1488" gradientUnits="userSpaceOnUse">
<stop offset="0.370192" stop-color="#006666"/>
<stop offset="1" stop-color="#00A3A3"/>
</linearGradient>
<linearGradient id="paint4_linear_486_2678" x1="19.0316" y1="22.6382" x2="19.0316" y2="33.1488" gradientUnits="userSpaceOnUse">
<stop offset="0.370192" stop-color="#006666"/>
<stop offset="1" stop-color="#00A3A3"/>
</linearGradient>
<linearGradient id="paint5_linear_486_2678" x1="19.0316" y1="17.7871" x2="19.0316" y2="20.2126" gradientUnits="userSpaceOnUse">
<stop offset="0.370192" stop-color="#006666"/>
<stop offset="1" stop-color="#00A3A3"/>
</linearGradient>
<linearGradient id="paint6_linear_486_2678" x1="27.8983" y1="22.6382" x2="27.8983" y2="33.1488" gradientUnits="userSpaceOnUse">
<stop offset="0.370192" stop-color="#006666"/>
<stop offset="1" stop-color="#00A3A3"/>
</linearGradient>
<linearGradient id="paint7_linear_486_2678" x1="27.8983" y1="22.6382" x2="27.8983" y2="33.1488" gradientUnits="userSpaceOnUse">
<stop offset="0.370192" stop-color="#006666"/>
<stop offset="1" stop-color="#00A3A3"/>
</linearGradient>
<linearGradient id="paint8_linear_486_2678" x1="37.1683" y1="21.0215" x2="37.1683" y2="33.1491" gradientUnits="userSpaceOnUse">
<stop offset="0.370192" stop-color="#006666"/>
<stop offset="1" stop-color="#00A3A3"/>
</linearGradient>
<linearGradient id="paint9_linear_486_2678" x1="37.1683" y1="21.0215" x2="37.1683" y2="33.1491" gradientUnits="userSpaceOnUse">
<stop offset="0.370192" stop-color="#006666"/>
<stop offset="1" stop-color="#00A3A3"/>
</linearGradient>
<linearGradient id="paint10_linear_486_2678" x1="45.229" y1="22.6382" x2="45.229" y2="33.1488" gradientUnits="userSpaceOnUse">
<stop offset="0.370192" stop-color="#006666"/>
<stop offset="1" stop-color="#00A3A3"/>
</linearGradient>
<linearGradient id="paint11_linear_486_2678" x1="45.229" y1="22.6382" x2="45.229" y2="33.1488" gradientUnits="userSpaceOnUse">
<stop offset="0.370192" stop-color="#006666"/>
<stop offset="1" stop-color="#00A3A3"/>
</linearGradient>
<linearGradient id="paint12_linear_486_2678" x1="55.3049" y1="22.6382" x2="55.3049" y2="37.9999" gradientUnits="userSpaceOnUse">
<stop offset="0.370192" stop-color="#006666"/>
<stop offset="1" stop-color="#00A3A3"/>
</linearGradient>
<linearGradient id="paint13_linear_486_2678" x1="55.3049" y1="22.6382" x2="55.3049" y2="37.9999" gradientUnits="userSpaceOnUse">
<stop offset="0.370192" stop-color="#006666"/>
<stop offset="1" stop-color="#00A3A3"/>
</linearGradient>
<linearGradient id="paint14_linear_486_2678" x1="64.9778" y1="22.6382" x2="64.9778" y2="33.1488" gradientUnits="userSpaceOnUse">
<stop offset="0.370192" stop-color="#006666"/>
<stop offset="1" stop-color="#00A3A3"/>
</linearGradient>
<linearGradient id="paint15_linear_486_2678" x1="64.9778" y1="22.6382" x2="64.9778" y2="33.1488" gradientUnits="userSpaceOnUse">
<stop offset="0.370192" stop-color="#006666"/>
<stop offset="1" stop-color="#00A3A3"/>
</linearGradient>
</defs>
</svg>
