<svg width="152" height="46" viewBox="0 0 152 46" fill="none" xmlns="http://www.w3.org/2000/svg">
<path d="M0 19H2.21898V46H0V19Z" fill="#008080"/>
<path d="M5.54745 4H7.76642V46H5.54745V4Z" fill="#008080"/>
<path d="M11.0949 9H13.3139V46H11.0949V9Z" fill="#008080"/>
<path d="M16.6423 0H18.8613V46H16.6423V0Z" fill="#008080"/>
<path d="M22.1898 6H24.4088V46H22.1898V6Z" fill="#008080"/>
<path d="M27.7372 14H29.9562V46H27.7372V14Z" fill="#008080"/>
<path d="M33.2847 32H35.5037V46H33.2847V32Z" fill="#008080"/>
<path d="M38.8321 6H41.0511V46H38.8321V6Z" fill="#008080"/>
<path d="M44.3796 9H46.5985V46H44.3796V9Z" fill="#008080"/>
<path d="M49.927 21H52.146V46H49.927V21Z" fill="#008080"/>
<path d="M55.4745 32H57.6934V46H55.4745V32Z" fill="#008080"/>
<path d="M61.0219 23H63.2409V46H61.0219V23Z" fill="#008080"/>
<path d="M66.5693 14H68.7883V46H66.5693V14Z" fill="#008080"/>
<path d="M72.1168 4H74.3358V46H72.1168V4Z" fill="#008080"/>
<path d="M77.6642 0H79.8832V46H77.6642V0Z" fill="#008080"/>
<path d="M83.2117 6H85.4307V46H83.2117V6Z" fill="#008080"/>
<path d="M88.7591 14H90.9781V46H88.7591V14Z" fill="#008080"/>
<path d="M94.3066 0H96.5256V46H94.3066V0Z" fill="#008080"/>
<path d="M99.854 14H102.073V46H99.854V14Z" fill="#008080"/>
<path d="M105.401 9H107.62V46H105.401V9Z" fill="#008080"/>
<path d="M110.949 4H113.168V46H110.949V4Z" fill="#008080"/>
<path d="M116.496 17H118.715V46H116.496V17Z" fill="#008080"/>
<path d="M122.044 6H124.263V46H122.044V6Z" fill="#008080"/>
<path d="M127.591 9H129.81V46H127.591V9Z" fill="#008080"/>
<path d="M133.139 17H135.358V46H133.139V17Z" fill="#008080"/>
<path d="M138.686 9H140.905V46H138.686V9Z" fill="#008080"/>
<path d="M144.234 26H146.453V46H144.234V26Z" fill="#008080"/>
<path d="M149.781 17H152V46H149.781V17Z" fill="#008080"/>
</svg>
