<svg width="148" height="48" viewBox="0 0 148 48" fill="none" xmlns="http://www.w3.org/2000/svg">
<path d="M1 46.672L6.03448 33.3642L11.069 5.43663L16.1034 44.3291L21.1379 45.1725L26.1724 42.361L31.2069 3L36.2414 11.5751L41.2759 27.2726L46.3103 9.56017L51.3448 8.38871L56.3793 24.7891L61.4138 22.6337L66.4483 27.8818L71.4828 17.8072L76.5172 42.361L81.5517 8.24814L86.5862 36.082L91.6207 11.0128L96.6552 14.246L101.69 31.3493L106.724 36.0351L111.759 36.3632L116.793 39.9712L121.828 17.1512L126.862 37.0192L131.897 29.9904L136.931 6.23323L141.966 45.5474L147 47" stroke="#006666" stroke-width="1.5"/>
</svg>
