<svg width="165" height="87" viewBox="0 0 165 87" fill="none" xmlns="http://www.w3.org/2000/svg">
<path fill-rule="evenodd" clip-rule="evenodd" d="M73.4857 16.1821H67.6602V19.1488H73.4857V36.2479C73.4857 37.6144 73.4318 38.7112 73.3239 39.5382C73.216 40.3294 73.0003 40.9587 72.6766 41.4262C72.353 41.8577 71.8675 42.1633 71.2202 42.3431C70.8269 42.4306 70.3538 42.498 69.8011 42.5456C68.6443 42.4379 67.6862 42.2805 66.9269 42.0734C66.1718 41.8577 65.4885 41.4801 64.8772 40.9407C64.3018 40.3653 63.7445 39.5562 63.2051 38.5134C62.7016 37.4705 62.0723 36.0321 61.3171 34.1982L48.4254 2.69702H44.4338L30.2475 38.2437C29.9239 38.9988 29.5823 39.6461 29.2227 40.1855C28.8631 40.689 28.4315 41.1025 27.9281 41.4262C27.4606 41.7498 26.9032 42.0015 26.2559 42.1813C25.7889 42.3187 24.7567 42.4351 23.9106 42.5305C23.6495 42.5599 23.4057 42.5874 23.2022 42.6128L23.1355 44.7704H26.9397C27.4025 44.9778 27.6338 45.4036 27.6338 46.048C27.6338 46.3564 27.6058 46.6789 27.5497 47.0154C27.4936 47.3519 27.3814 47.8005 27.2132 48.3613C27.045 48.9221 26.7926 49.6372 26.4561 50.5064C26.1477 51.3757 25.7271 52.4973 25.1943 53.8713L19.7264 67.8774L12.9967 49.4549C12.7163 48.6978 12.506 48.0529 12.3658 47.5201C12.2256 46.9873 12.1555 46.5247 12.1555 46.1321C12.1555 45.8237 12.2116 45.5713 12.3238 45.375C12.4359 45.1507 12.6322 44.9825 12.9126 44.8703C13.193 44.7301 13.5716 44.632 14.0482 44.5759C14.553 44.5198 15.1699 44.4777 15.8989 44.4497V42.7252H0V44.4497C0.813171 44.4497 1.51418 44.5478 2.10303 44.7441C2.71992 44.9124 3.28073 45.2488 3.78545 45.7536C4.29018 46.2303 4.76687 46.8892 5.21551 47.7304C5.66416 48.5716 6.16889 49.6512 6.72969 50.9691L16.7822 75.5325H19.8947L30.9566 47.8145C31.5611 46.2845 32.49 45.2698 33.7435 44.7704H38.824V42.6128C37.2058 42.6128 35.9832 42.469 35.1561 42.1813C34.365 41.8936 33.9694 41.2104 33.9694 40.1316C33.9694 38.6572 34.8145 36.0141 36.5046 32.2024H51.7697L53.0103 35.4388C53.4419 36.5895 53.7835 37.5604 54.0352 38.3516C54.2869 39.1427 54.4128 39.79 54.4128 40.2934C54.4128 41.1564 54.0352 41.7318 53.28 42.0195C52.5249 42.3072 51.2842 42.487 49.5582 42.5589V44.7705H86.8629V42.6128C85.6762 42.5769 84.7053 42.469 83.9502 42.2892C83.195 42.0734 82.5837 41.7138 82.1162 41.2104C81.6847 40.707 81.379 40.0237 81.1992 39.1607C81.0554 38.2976 80.9834 37.1828 80.9834 35.8164V19.1488H90.0993C91.1781 19.1488 92.0146 19.3005 93.0315 19.904C93.7371 20.3227 94.1355 20.6273 94.5958 21.3064C95.1617 22.1414 95.1986 22.7786 95.2527 23.713C95.2647 23.9193 95.2775 24.1405 95.297 24.381C95.4049 25.7115 95.4588 27.4916 95.4588 29.7211V36.3018C95.4588 37.6683 95.4049 38.7651 95.297 39.5922C95.2251 40.3833 95.0273 40.9946 94.7037 41.4262C94.38 41.8577 93.8945 42.1454 93.2473 42.2892C92.6 42.433 87.9417 42.5409 86.8629 42.6128V44.7705H108.674V42.6128C107.416 42.6128 106.409 42.5589 105.654 42.451C104.898 42.3072 104.323 42.0195 103.927 41.588C103.532 41.1564 103.262 40.5451 103.118 39.754C103.01 38.9269 102.957 37.8122 102.957 36.4097V33.8206C102.957 32.49 103.046 31.1595 103.226 29.829C103.406 28.4625 103.64 27.2399 103.927 26.161C104.323 24.6507 104.826 23.4461 105.438 22.547C106.049 21.648 106.696 21.1985 107.38 21.1985C107.739 21.1985 108.081 21.3244 108.404 21.5761C108.764 21.7919 109.106 22.0436 109.429 22.3313C109.789 22.583 110.185 22.8167 110.616 23.0325C111.048 23.2483 111.533 23.3562 112.072 23.3562C113.223 23.3562 114.122 22.9606 114.769 22.1695C115.453 21.3783 115.794 20.4074 115.794 19.2567C115.794 18.2138 115.363 17.3508 114.5 16.6676C113.637 15.9843 112.522 15.6427 111.155 15.6427C109.393 15.6427 107.721 16.2001 106.139 17.3148C104.557 18.4296 103.28 19.9399 102.309 21.8458H102.093L101.23 15.6427L90.0993 16.1821H80.9834V12.8378C80.9834 9.78118 81.397 7.38982 82.2241 5.66373C83.0511 3.90168 84.1839 3.02066 85.6223 3.02066C86.1257 3.02066 86.6112 3.12854 87.0787 3.3443C87.5462 3.56006 87.9957 3.91966 88.4272 4.42311C89.3981 5.57383 90.1173 6.36496 90.5848 6.79648C91.0883 7.228 91.6636 7.44376 92.3109 7.44376C93.2459 7.44376 94.019 7.17406 94.6303 6.63466C95.2417 6.09525 95.5473 5.41201 95.5473 4.58492C95.5473 3.93764 95.3316 3.32632 94.9 2.75096C94.5045 2.17559 93.9291 1.69013 93.1739 1.29457C92.4188 0.899005 91.5198 0.593344 90.4769 0.377584C89.47 0.125861 88.3553 0 87.1326 0C85.0829 0 83.213 0.323642 81.5228 0.970926C79.8687 1.58225 78.4482 2.48126 77.2616 3.66794C76.0749 4.81867 75.1399 6.20314 74.4567 7.82134C73.8094 9.43955 73.4857 11.2196 73.4857 13.1614V16.1821ZM50.583 28.9659H37.7452L44.1641 12.622H44.3799L50.583 28.9659Z" fill="black"/>
<path fill-rule="evenodd" clip-rule="evenodd" d="M137.811 16.7754C135.905 16.0203 133.873 15.6427 131.716 15.6427C129.594 15.6427 127.58 16.0023 125.674 16.7215C123.768 17.4407 122.096 18.4476 120.658 19.7422C119.219 21.0367 118.087 22.583 117.26 24.381C116.432 26.179 116.019 28.1389 116.019 30.2605C116.019 32.4541 116.432 34.4858 117.26 36.3558C118.087 38.1897 119.219 39.772 120.658 41.1025C122.096 42.433 123.768 43.4759 125.674 44.231C127.58 44.9503 129.594 45.3099 131.716 45.3099C133.873 45.3099 135.905 44.9323 137.811 44.1771C139.753 43.4219 141.443 42.3791 142.881 41.0486C144.356 39.718 145.506 38.1358 146.333 36.3018C147.196 34.4679 147.628 32.4541 147.628 30.2605C147.628 28.1389 147.196 26.197 146.333 24.435C145.506 22.6369 144.356 21.0907 142.881 19.7961C141.443 18.5015 139.753 17.4946 137.811 16.7754ZM128.749 19.6343C129.648 19.0589 130.637 18.7712 131.716 18.7712C132.83 18.7712 133.837 19.0589 134.736 19.6343C135.671 20.1737 136.462 20.9648 137.11 22.0076C137.757 23.0145 138.26 24.2192 138.62 25.6216C138.98 27.0241 139.159 28.5884 139.159 30.3145C139.159 32.0765 138.98 33.6767 138.62 35.1151C138.26 36.5535 137.757 37.7942 137.11 38.837C136.462 39.8439 135.671 40.635 134.736 41.2104C133.837 41.7498 132.83 42.0195 131.716 42.0195C130.601 42.0195 129.594 41.7498 128.695 41.2104C127.832 40.635 127.077 39.8439 126.429 38.837C125.818 37.8301 125.333 36.6075 124.973 35.1691C124.649 33.7307 124.488 32.1125 124.488 30.3145C124.488 28.5884 124.649 27.0241 124.973 25.6216C125.333 24.1832 125.818 22.9606 126.429 21.9537C127.077 20.9468 127.85 20.1737 128.749 19.6343Z" fill="black"/>
<path d="M47.4524 68.2139C47.4524 69.3355 47.4945 70.2328 47.5786 70.9058C47.6627 71.5788 47.831 72.0975 48.0833 72.462C48.3357 72.8266 48.7002 73.0789 49.1769 73.2191C49.6536 73.3313 50.2985 73.4014 51.1117 73.4294V75.1119H37.8626V73.4294C38.6477 73.4014 39.2786 73.3173 39.7553 73.1771C40.26 73.0088 40.6386 72.7565 40.891 72.42C41.1714 72.0555 41.3536 71.5647 41.4377 70.9479C41.5499 70.3029 41.606 69.4898 41.606 68.5083V63.3349C41.606 61.7085 41.5779 60.3766 41.5219 59.3391C41.4658 58.2736 41.3957 57.5446 41.3116 57.152C41.1714 56.451 40.8489 55.9883 40.3442 55.764C39.8675 55.5397 38.9842 55.4275 37.6944 55.4275V53.9974L47.4524 52.3991V68.2139Z" fill="black"/>
<path d="M41.2695 43.4823C41.2695 42.557 41.5779 41.7858 42.1948 41.169C42.8398 40.524 43.6109 40.2016 44.5082 40.2016C45.4335 40.2016 46.2046 40.524 46.8215 41.169C47.4664 41.7858 47.7889 42.557 47.7889 43.4823C47.7889 44.3796 47.4664 45.1507 46.8215 45.7956C46.2046 46.4125 45.4335 46.721 44.5082 46.721C43.6109 46.721 42.8398 46.4125 42.1948 45.7956C41.5779 45.1507 41.2695 44.3796 41.2695 43.4823Z" fill="black"/>
<path d="M61.4724 70.9899C61.4163 70.317 61.3883 69.4056 61.3883 68.256V62.4516C61.3883 61.5824 61.4724 60.7552 61.6406 59.97C61.8369 59.1569 62.0612 58.4979 62.3136 57.9932C62.7903 57.0959 63.3511 56.3949 63.996 55.8902C64.6409 55.3854 65.4121 55.1331 66.3094 55.1331C67.2347 55.1331 68.0058 55.2733 68.6227 55.5537C69.2396 55.806 69.7303 56.2407 70.0948 56.8576C70.4874 57.4464 70.7678 58.2315 70.936 59.213C71.1043 60.1944 71.1884 61.4001 71.1884 62.8302V68.5504C71.1884 69.5879 71.1463 70.4291 71.0622 71.074C70.9781 71.6909 70.8098 72.1676 70.5575 72.5041C70.3051 72.8406 69.9266 73.0789 69.4218 73.2191C68.9452 73.3313 68.2862 73.4014 67.445 73.4294V75.1119H80.61V73.4294C79.7968 73.3734 79.1519 73.2892 78.6752 73.1771C78.1985 73.0649 77.834 72.8406 77.5816 72.5041C77.3573 72.1396 77.203 71.6349 77.1189 70.9899C77.0628 70.317 77.0348 69.4056 77.0348 68.256V62.3254C77.0348 60.5309 76.8525 59.1288 76.488 58.1194C76.1235 57.0819 75.7029 56.2407 75.2262 55.5957C74.3569 54.4461 73.3615 53.6329 72.2399 53.1562C71.1463 52.6515 69.7022 52.3991 67.9077 52.3991C66.3935 52.3991 65.0055 52.7216 63.7437 53.3665C62.4818 54.0115 61.3883 54.9228 60.4629 56.1005H60.2947L59.7479 52.3991L51.6302 53.9974V55.4275C52.2751 55.4275 52.8079 55.4555 53.2285 55.5116C53.6491 55.5397 53.9996 55.6238 54.28 55.764C54.5604 55.8761 54.7707 56.0584 54.9109 56.3108C55.0511 56.5351 55.1633 56.8295 55.2474 57.194C55.3315 57.5586 55.4016 58.2596 55.4577 59.2971C55.5138 60.3065 55.5418 61.6385 55.5418 63.2928V68.5504C55.5418 69.6159 55.4998 70.4572 55.4157 71.074C55.3315 71.6909 55.1493 72.1676 54.8689 72.5041C54.6165 72.8406 54.238 73.0649 53.7332 73.1771C53.2566 73.2892 52.6116 73.3734 51.7984 73.4294V75.1119H65.0475V73.4294C64.2063 73.3734 63.5334 73.2892 63.0286 73.1771C62.5519 73.0649 62.1874 72.8406 61.9351 72.5041C61.7107 72.1396 61.5565 71.6349 61.4724 70.9899Z" fill="black"/>
<path d="M80.928 55.1331V53.2403C82.6105 52.7637 84.0125 52.0486 85.1341 51.0953C86.2838 50.1138 87.139 48.9922 87.6998 47.7304H89.8449V52.8197H94.6818V55.1331H89.8449V68.0457C89.8449 69.7842 90.0271 71.018 90.3917 71.747C90.7842 72.4761 91.4292 72.8406 92.3265 72.8406C93.42 72.8406 94.2472 72.3359 94.808 71.3264L95.6913 72.5462C94.9062 74.537 93.0555 75.5325 90.1393 75.5325C88.2045 75.5325 86.6903 75.0838 85.5968 74.1865C84.5312 73.2892 83.9985 72.0274 83.9985 70.4011V55.1331H80.928Z" fill="black"/>
<path fill-rule="evenodd" clip-rule="evenodd" d="M109.144 59.1288V60.8954L103.213 63.4611C100.662 64.4986 98.8389 65.5641 97.7454 66.6577C96.6518 67.7232 96.105 68.8729 96.105 70.1066C96.105 71.705 96.6378 73.0088 97.7033 74.0183C98.7688 74.9997 100.185 75.4904 101.951 75.4904C103.606 75.4904 105.078 75.1119 106.368 74.3548C107.658 73.5977 108.709 72.4901 109.522 71.032H109.733C109.733 72.462 110.069 73.5696 110.742 74.3548C111.415 75.1399 112.396 75.5325 113.686 75.5325C114.724 75.5325 115.649 75.3362 116.462 74.9436C117.304 74.523 117.92 73.9622 118.313 73.2612L117.682 72.0414C117.233 72.406 116.743 72.5882 116.21 72.5882C115.257 72.5882 114.78 71.3965 114.78 69.0131V59.8018C114.78 57.138 114.107 55.2452 112.761 54.1236C111.415 52.974 109.172 52.3991 106.031 52.3991C103.059 52.3991 100.83 52.7917 99.3437 53.5768C97.8856 54.362 97.1565 55.4275 97.1565 56.7734C97.1565 57.6427 97.3668 58.3157 97.7874 58.7924C98.208 59.269 98.8109 59.5074 99.596 59.5074C100.409 59.5074 101.04 59.3111 101.489 58.9185C101.965 58.526 102.33 57.9792 102.582 57.2782C102.947 56.2687 103.339 55.5537 103.76 55.1331C104.181 54.6844 104.798 54.4601 105.611 54.4601C106.816 54.4601 107.7 54.8387 108.261 55.5957C108.849 56.3248 109.144 57.5025 109.144 59.1288ZM103.802 66.1109C105.008 65.1856 106.788 64.1901 109.144 63.1246V67.1203C109.144 67.7372 109.018 68.3261 108.765 68.8869C108.541 69.4197 108.218 69.8823 107.798 70.2749C107.377 70.6675 106.873 70.9899 106.284 71.2423C105.695 71.4666 105.064 71.5788 104.391 71.5788C103.718 71.5788 103.157 71.3404 102.709 70.8637C102.26 70.3871 102.036 69.7421 102.036 68.929C102.036 67.9475 102.624 67.0082 103.802 66.1109Z" fill="black"/>
<path fill-rule="evenodd" clip-rule="evenodd" d="M127.155 70.5693C127.912 70.6254 128.571 70.6815 129.132 70.7376C129.721 70.7936 130.267 70.8637 130.772 70.9479C131.305 71.0039 131.824 71.074 132.328 71.1582C132.861 71.2142 133.422 71.2843 134.011 71.3685C136.198 71.6769 137.908 72.5041 139.142 73.85C140.404 75.1679 141.035 76.8083 141.035 78.7711C141.035 81.1546 140.053 82.9632 138.091 84.1969C136.128 85.4307 133.24 86.0476 129.426 86.0476C125.921 86.0476 123.215 85.5289 121.309 84.4914C119.43 83.4819 118.49 82.0378 118.49 80.1591C118.49 78.701 118.869 77.5934 119.626 76.8363C120.383 76.1073 121.337 75.7428 122.486 75.7428C123.215 75.7428 123.916 75.883 124.589 76.1634C125.29 76.4718 125.879 76.9064 126.356 77.4673C125.627 77.6075 125.024 77.9299 124.547 78.4346C124.099 78.9674 123.874 79.5843 123.874 80.2853C123.874 81.4069 124.365 82.2622 125.346 82.851C126.356 83.4679 127.828 83.7763 129.763 83.7763C133.969 83.7763 136.072 82.4444 136.072 79.7806C136.072 78.8272 135.749 78 135.104 77.299C134.487 76.626 133.59 76.2195 132.412 76.0793L125.052 75.0698C121.939 74.6492 120.383 73.2612 120.383 70.9058C120.383 69.7561 120.748 68.8168 121.477 68.0877C122.234 67.3587 123.299 66.854 124.673 66.5736V66.4053C124.028 66.153 123.44 65.8024 122.907 65.3538C122.402 64.9052 121.953 64.3864 121.561 63.7976C121.168 63.2087 120.86 62.5778 120.636 61.9048C120.439 61.2038 120.341 60.4888 120.341 59.7597C120.341 58.7222 120.551 57.7549 120.972 56.8576C121.421 55.9322 122.024 55.1471 122.781 54.5022C123.566 53.8572 124.477 53.3525 125.515 52.988C126.58 52.5954 127.73 52.3991 128.964 52.3991C130.169 52.3991 131.347 52.5814 132.497 52.9459C133.646 53.3105 134.628 53.8152 135.441 54.4601C136.086 54.0675 136.647 53.7451 137.123 53.4927C137.6 53.2123 138.035 53.002 138.427 52.8618C138.848 52.6936 139.226 52.5814 139.563 52.5253C139.899 52.4412 140.236 52.3991 140.572 52.3991C141.638 52.3991 142.493 52.6375 143.138 53.1142C143.811 53.5909 144.147 54.2218 144.147 55.0069C144.147 55.5957 143.965 56.0865 143.601 56.479C143.236 56.8435 142.759 57.0258 142.171 57.0258C141.75 57.0258 141.413 56.9417 141.161 56.7734C140.909 56.5772 140.656 56.3669 140.404 56.1425C140.18 55.8902 139.941 55.6799 139.689 55.5116C139.437 55.3153 139.1 55.2172 138.68 55.2172C138.091 55.2172 137.53 55.5957 136.997 56.3528C137.278 56.8295 137.474 57.3483 137.586 57.9091C137.698 58.4418 137.754 59.0728 137.754 59.8018C137.754 60.8673 137.586 61.8488 137.249 62.746C136.913 63.6433 136.38 64.4425 135.651 65.1435C134.95 65.8165 134.039 66.3913 132.917 66.868C131.796 67.3447 130.436 67.6671 128.837 67.8354C127.491 67.9756 126.552 68.1578 126.019 68.3822C125.515 68.6065 125.262 68.943 125.262 69.3916C125.262 70.0646 125.893 70.4572 127.155 70.5693ZM129.174 65.4379C130.071 65.4379 130.772 64.9612 131.277 64.0079C131.782 63.0545 132.034 61.7226 132.034 60.0121C132.034 58.2736 131.782 56.9417 131.277 56.0163C130.772 55.063 130.057 54.5863 129.132 54.5863C128.178 54.5863 127.421 55.063 126.86 56.0163C126.3 56.9697 126.019 58.2736 126.019 59.928C126.019 61.6104 126.3 62.9563 126.86 63.9658C127.449 64.9472 128.22 65.4379 129.174 65.4379Z" fill="black"/>
<path fill-rule="evenodd" clip-rule="evenodd" d="M154.894 75.5325C158.707 75.5325 161.89 74.0884 164.441 71.2002L163.264 69.7281C162.17 70.7095 161.034 71.4666 159.857 71.9994C158.707 72.5321 157.543 72.7985 156.366 72.7985C154.319 72.7985 152.692 71.9994 151.487 70.4011C150.309 68.8028 149.72 66.6296 149.72 63.8817C149.72 63.2087 149.776 62.746 149.888 62.4937H163.432C164.077 62.4937 164.469 62.4516 164.61 62.3675C164.75 62.2553 164.82 61.9749 164.82 61.5263C164.82 58.6381 163.993 56.3949 162.338 54.7966C160.684 53.1983 158.371 52.3991 155.398 52.3991C153.632 52.3991 152.005 52.6936 150.519 53.2824C149.061 53.8713 147.785 54.6985 146.692 55.764C145.626 56.8015 144.799 58.0493 144.21 59.5074C143.621 60.9374 143.327 62.5217 143.327 64.2602C143.327 65.9427 143.607 67.4708 144.168 68.8448C144.729 70.2188 145.514 71.4105 146.523 72.42C147.533 73.4014 148.739 74.1725 150.141 74.7333C151.571 75.2661 153.155 75.5325 154.894 75.5325ZM158.427 59.97C158.118 60.0822 157.403 60.1383 156.282 60.1383H150.183C150.463 58.5961 151.066 57.3342 151.991 56.3528C152.945 55.3434 154.024 54.8387 155.23 54.8387C156.296 54.8387 157.179 55.2312 157.88 56.0163C158.581 56.8015 158.931 57.8109 158.931 59.0447C158.931 59.5214 158.763 59.8298 158.427 59.97Z" fill="black"/>
</svg>
