<svg width="37" height="31" viewBox="0 0 37 31" fill="none" xmlns="http://www.w3.org/2000/svg">
<path d="M21.4163 10.0106C21.1042 10.0106 20.8506 9.75739 20.8506 9.44496V8.48364C20.8506 8.17162 21.1038 7.91797 21.4163 7.91797C21.7283 7.91797 21.9819 8.17122 21.9819 8.48364V9.44496C21.9819 9.75739 21.7283 10.0106 21.4163 10.0106Z" fill="#103E13"/>
<path d="M19.0383 10.0106C18.7263 10.0106 18.4727 9.75739 18.4727 9.44496V8.48364C18.4727 8.17162 18.7259 7.91797 19.0383 7.91797C19.3504 7.91797 19.604 8.17122 19.604 8.48364V9.44496C19.6036 9.75739 19.3508 10.0106 19.0383 10.0106Z" fill="#103E13"/>
<path d="M16.6604 10.0106C16.3484 10.0106 16.0947 9.75739 16.0947 9.44496V8.48364C16.0947 8.17162 16.348 7.91797 16.6604 7.91797C16.9724 7.91797 17.2261 8.17122 17.2261 8.48364V9.44496C17.2261 9.75739 16.9728 10.0106 16.6604 10.0106Z" fill="#103E13"/>
<path d="M21.4163 13.9419C21.1042 13.9419 20.8506 13.6886 20.8506 13.3762V12.4153C20.8506 12.1033 21.1038 11.8496 21.4163 11.8496C21.7283 11.8496 21.9819 12.1029 21.9819 12.4153V13.3762C21.9819 13.6886 21.7283 13.9419 21.4163 13.9419Z" fill="#103E13"/>
<path d="M19.0383 13.9419C18.7263 13.9419 18.4727 13.6886 18.4727 13.3762V12.4153C18.4727 12.1033 18.7259 11.8496 19.0383 11.8496C19.3504 11.8496 19.604 12.1029 19.604 12.4153V13.3762C19.6036 13.6886 19.3508 13.9419 19.0383 13.9419Z" fill="#103E13"/>
<path d="M16.6604 13.9419C16.3484 13.9419 16.0947 13.6886 16.0947 13.3762V12.4153C16.0947 12.1033 16.348 11.8496 16.6604 11.8496C16.9724 11.8496 17.2261 12.1029 17.2261 12.4153V13.3762C17.2261 13.6886 16.9728 13.9419 16.6604 13.9419Z" fill="#103E13"/>
<path d="M21.4163 17.8729C21.1042 17.8729 20.8506 17.6197 20.8506 17.3073V16.3459C20.8506 16.0339 21.1038 15.7803 21.4163 15.7803C21.7283 15.7803 21.9819 16.0335 21.9819 16.3459V17.3073C21.9819 17.6197 21.7283 17.8729 21.4163 17.8729Z" fill="#103E13"/>
<path d="M19.0383 17.8729C18.7263 17.8729 18.4727 17.6197 18.4727 17.3073V16.3459C18.4727 16.0339 18.7259 15.7803 19.0383 15.7803C19.3504 15.7803 19.604 16.0335 19.604 16.3459V17.3073C19.6036 17.6197 19.3508 17.8729 19.0383 17.8729Z" fill="#103E13"/>
<path d="M16.6604 17.8729C16.3484 17.8729 16.0947 17.6197 16.0947 17.3073V16.3459C16.0947 16.0339 16.348 15.7803 16.6604 15.7803C16.9724 15.7803 17.2261 16.0335 17.2261 16.3459V17.3073C17.2261 17.6197 16.9728 17.8729 16.6604 17.8729Z" fill="#103E13"/>
<path d="M21.4163 21.8036C21.1042 21.8036 20.8506 21.5504 20.8506 21.2379V20.2766C20.8506 19.9646 21.1038 19.7109 21.4163 19.7109C21.7283 19.7109 21.9819 19.9642 21.9819 20.2766V21.2379C21.9819 21.5504 21.7283 21.8036 21.4163 21.8036Z" fill="#103E13"/>
<path d="M19.0383 21.8036C18.7263 21.8036 18.4727 21.5504 18.4727 21.2379V20.2766C18.4727 19.9646 18.7259 19.7109 19.0383 19.7109C19.3504 19.7109 19.604 19.9642 19.604 20.2766V21.2379C19.6036 21.5504 19.3508 21.8036 19.0383 21.8036Z" fill="#103E13"/>
<path d="M16.6604 21.8036C16.3484 21.8036 16.0947 21.5504 16.0947 21.2379V20.2766C16.0947 19.9646 16.348 19.7109 16.6604 19.7109C16.9724 19.7109 17.2261 19.9642 17.2261 20.2766V21.2379C17.2261 21.5504 16.9728 21.8036 16.6604 21.8036Z" fill="#103E13"/>
<path d="M21.4163 25.7349C21.1042 25.7349 20.8506 25.4816 20.8506 25.1692V24.2083C20.8506 23.8962 21.1038 23.6426 21.4163 23.6426C21.7283 23.6426 21.9819 23.8958 21.9819 24.2083V25.1692C21.9819 25.4812 21.7283 25.7349 21.4163 25.7349Z" fill="#103E13"/>
<path d="M19.0383 25.7349C18.7263 25.7349 18.4727 25.4816 18.4727 25.1692V24.2083C18.4727 23.8962 18.7259 23.6426 19.0383 23.6426C19.3504 23.6426 19.604 23.8958 19.604 24.2083V25.1692C19.6036 25.4812 19.3508 25.7349 19.0383 25.7349Z" fill="#103E13"/>
<path d="M16.6604 25.7349C16.3484 25.7349 16.0947 25.4816 16.0947 25.1692L16.0951 24.2083C16.0951 23.8962 16.3484 23.6426 16.6608 23.6426C16.9728 23.6426 17.2265 23.8958 17.2265 24.2083V25.1692C17.2261 25.4812 16.9728 25.7349 16.6604 25.7349Z" fill="#103E13"/>
<path d="M0.500475 29.6471C0.500475 29.9592 0.753724 30.2128 1.06615 30.2128H35.5139C35.8259 30.2128 36.0796 29.9596 36.0796 29.6471C36.0796 29.3351 35.8263 29.0815 35.5139 29.0815H34.4682V12.8402C34.4682 12.5281 34.215 12.2745 33.9025 12.2745L24.6668 12.2749V0.565762C24.6668 0.367742 24.5635 0.184709 24.3946 0.0821389C24.2262 -0.0208145 24.0156 -0.0271258 23.8404 0.0639933L13.3401 5.53098C13.1527 5.62841 13.0359 5.8217 13.0359 6.03275V16.2604H2.87388C2.56186 16.2604 2.3082 16.5137 2.3082 16.8261V29.0816H1.06489C0.752866 29.0812 0.5 29.3344 0.5 29.6468L0.500475 29.6471ZM24.667 20.8422H33.3374V29.0819L24.667 29.0815V20.8422ZM24.667 16.9113H33.3374V19.7113L24.667 19.7109V16.9113ZM24.667 13.4056H33.3374V15.7808H24.667V13.4056ZM14.1667 6.37622L23.5353 1.49818V29.081H14.1667V6.37622ZM6.23588 24.5635C6.23588 23.3895 7.16603 22.4341 8.30959 22.4341C9.45314 22.4341 10.3837 23.3891 10.3837 24.5635V29.0817H6.23588V24.5635ZM3.43952 17.3916H13.0358V29.0815H11.515V24.5633C11.515 22.7657 10.0776 21.303 8.30959 21.303C6.54236 21.303 5.10495 22.7653 5.10495 24.5633V29.0815H3.43952V17.3916Z" fill="#103E13"/>
</svg>
