<svg width="34" height="30" viewBox="0 0 34 30" fill="none" xmlns="http://www.w3.org/2000/svg">
<path d="M21.3117 14.6451C21.0709 14.6451 20.8473 14.5789 20.6487 14.4724V14.4753C20.6487 14.8541 20.5014 15.2099 20.2343 15.4763C19.9671 15.7435 19.6116 15.8907 19.2332 15.8907C18.9889 15.8907 18.7625 15.8229 18.5617 15.7136C18.5415 16.0601 18.4029 16.3841 18.1558 16.6315C17.8886 16.8987 17.5331 17.0459 17.1545 17.0459C16.4022 17.0459 15.7913 16.4545 15.7473 15.7133C15.5145 15.8392 15.2513 15.9051 14.9799 15.8877C14.2398 15.8392 13.6603 15.1998 13.6603 14.4317V8.06502L12.9353 9.32098C12.6592 9.80136 12.1423 10.0996 11.5858 10.0996C11.3147 10.0996 11.0468 10.0285 10.8095 9.89253C10.5141 9.72125 10.3028 9.44631 10.2149 9.11739C10.1265 8.78826 10.1722 8.44405 10.3431 8.14906C10.3433 8.14906 12.715 4.04186 12.8597 3.78957C12.8769 3.75164 12.9259 3.64162 12.9676 3.54785C13.0075 3.45832 13.0416 3.36644 13.0744 3.27408C13.7896 1.2548 15.5607 0.000469208 17.6966 0.000469208C20.4703 0.000469208 22.7268 2.44737 22.7268 5.45506L22.727 13.2294C22.727 13.6078 22.58 13.9633 22.3131 14.2307C22.0459 14.4979 21.6904 14.6451 21.3116 14.6451L21.3117 14.6451ZM17.6966 0.752611C15.8613 0.752611 14.3984 1.78927 13.7833 3.52563C13.744 3.63588 13.703 3.74614 13.6552 3.85358C13.5164 4.16481 13.5164 4.1648 13.4773 4.20956L13.4721 4.20509C13.2784 4.5705 12.7031 5.56683 10.9943 8.52549C10.9241 8.64682 10.9055 8.78771 10.9413 8.92247C10.9776 9.05724 11.0645 9.17079 11.1849 9.24029C11.5586 9.45492 12.0703 9.31639 12.2833 8.94532L13.7108 6.47388C13.7961 6.32663 13.9685 6.2543 14.1339 6.29907C14.2983 6.34312 14.4126 6.49225 14.4126 6.66236V14.4319C14.4126 14.7985 14.6892 15.1149 15.0292 15.1372C15.2252 15.1476 15.408 15.0819 15.5454 14.9448C15.6702 14.8199 15.739 14.6536 15.739 14.4757V9.39431C15.739 9.18652 15.9075 9.01806 16.1153 9.01806C16.3231 9.01806 16.4915 9.18628 16.4915 9.39431L16.4913 15.6307C16.4913 15.9963 16.7889 16.2939 17.1545 16.2939C17.3321 16.2939 17.499 16.2251 17.6241 16.1002C17.7489 15.9751 17.8177 15.8083 17.8177 15.6307V9.39431C17.8177 9.18651 17.9859 9.01806 18.194 9.01806C18.4018 9.01806 18.5702 9.18628 18.5702 9.39431L18.57 14.4172V14.4757C18.57 14.8411 18.8675 15.1386 19.2334 15.1386C19.4108 15.1386 19.5772 15.0696 19.703 14.9443C19.8278 14.8196 19.8966 14.6533 19.8966 14.4754V9.39404C19.8966 9.18625 20.0649 9.01779 20.2729 9.01779C20.4807 9.01779 20.6491 9.18601 20.6491 9.39404L20.6487 13.2296C20.6487 13.5955 20.9462 13.893 21.3116 13.893C21.4895 13.893 21.6558 13.824 21.7807 13.6994C21.906 13.574 21.9746 13.4072 21.9746 13.2296L21.9748 5.45524C21.9748 2.8625 20.0557 0.752689 17.6966 0.752689L17.6966 0.752611Z" fill="#103E13"/>
<path d="M6.52922 20.048L11.9889 16.7727C12.6472 16.3774 13.4942 16.5454 13.9164 17.1553C14.0704 17.3775 14.1491 17.6364 14.1614 17.9001C14.3649 17.7938 14.5864 17.7361 14.8119 17.7361C14.9273 17.7361 15.0432 17.7505 15.1577 17.779C15.5245 17.8706 15.8336 18.0999 16.028 18.424C16.2226 18.7487 16.2794 19.1291 16.1878 19.4955C16.1032 19.8346 15.897 20.1199 15.6103 20.3157C15.8108 20.4339 15.9837 20.5953 16.1067 20.8008C16.3013 21.1254 16.3581 21.5057 16.2667 21.8725C16.1751 22.2389 15.9458 22.548 15.6212 22.7429L15.6193 22.744C15.8162 22.8621 15.9861 23.0218 16.1077 23.2242C16.3025 23.5488 16.3593 23.9293 16.2676 24.2961C16.1758 24.6627 15.9465 24.9718 15.6224 25.1664L8.95596 29.1657C7.71176 29.9119 6.27341 30.1694 4.90648 29.8902C3.5273 29.6084 2.38509 28.8157 1.69059 27.6579C0.591501 25.8261 0.756216 23.6619 2.11961 22.0101C2.18205 21.9347 2.24354 21.8579 2.29937 21.7783C2.35851 21.6942 2.42754 21.5952 2.4511 21.5613C2.59222 21.3092 4.89498 17.1603 4.89474 17.1608C5.12728 16.7412 5.56313 16.5037 6.01264 16.5039C6.22233 16.5039 6.43507 16.5555 6.63134 16.6644C6.86835 16.7968 7.06743 16.9898 7.20667 17.2223C7.49292 17.6994 7.50305 18.2964 7.23353 18.7796L6.52922 20.048ZM6.56197 17.6091C6.48894 17.4873 6.38857 17.3902 6.26582 17.3214C6.01208 17.181 5.69261 17.2724 5.55292 17.5252C3.90517 20.4937 3.34347 21.5054 3.12671 21.8654L3.13165 21.8666C3.11351 21.9269 3.11351 21.9269 2.91514 22.2103C2.84776 22.3062 2.77449 22.3983 2.69981 22.489C1.52744 23.9094 1.39132 25.6969 2.33534 27.2709C2.92009 28.2458 3.88653 28.9142 5.05672 29.1531C6.23964 29.3937 7.48643 29.1699 8.56857 28.5206L15.2356 24.5211C15.3878 24.4299 15.4952 24.285 15.5381 24.1133C15.581 23.9417 15.5543 23.7634 15.4629 23.6112C15.2749 23.2979 14.8666 23.1949 14.5533 23.3836L11.2644 25.3568C11.0862 25.4637 10.8549 25.4062 10.7482 25.2279C10.6412 25.0498 10.6989 24.8187 10.877 24.7117L14.1662 22.7386L15.2344 22.0977C15.3866 22.0063 15.4943 21.8614 15.5371 21.6901C15.58 21.5184 15.5534 21.3398 15.462 21.1878C15.2737 20.8743 14.8655 20.7723 14.5523 20.9603L10.195 23.5742C10.0164 23.6814 9.78573 23.6235 9.67877 23.4454C9.57182 23.2673 9.62977 23.0361 9.80765 22.9292L15.1555 19.7211C15.3077 19.6296 15.4151 19.485 15.458 19.3132C15.5009 19.1417 15.4742 18.9634 15.3831 18.8112C15.2919 18.6592 15.147 18.5518 14.9753 18.5089C14.8026 18.466 14.6249 18.4927 14.4732 18.5836L13.4832 19.1775C13.483 19.1775 13.483 19.1778 13.4827 19.1778H13.4825L9.12537 21.7917C8.94679 21.8992 8.7159 21.8412 8.60918 21.6629C8.50222 21.4848 8.56017 21.2536 8.73805 21.1467L13.0954 18.5327C13.2476 18.4413 13.3553 18.2964 13.3982 18.1251C13.4453 17.9371 13.4095 17.7449 13.2978 17.5837C13.1041 17.3036 12.69 17.2291 12.3759 17.4179L5.71373 21.4146C5.5679 21.5017 5.38107 21.4805 5.25879 21.3625C5.13628 21.2442 5.10872 21.0583 5.19118 20.9097L6.57651 18.4137C6.71551 18.1642 6.71009 17.8561 6.5619 17.6092L6.56197 17.6091Z" fill="#103E13"/>
<path d="M32.6183 27.6581C31.924 28.8161 30.7821 29.6086 29.4027 29.8904C28.0355 30.1691 26.5977 29.9121 25.3532 29.1659L18.6862 25.1665C18.3618 24.9719 18.1323 24.6627 18.0404 24.2957C17.9493 23.9293 18.0063 23.5488 18.2006 23.2246C18.322 23.022 18.4921 22.8623 18.6893 22.7442L18.6874 22.7431C18.363 22.5485 18.1335 22.2393 18.0421 21.8727C17.9502 21.5062 18.0072 21.1254 18.2018 20.8008C18.3272 20.5923 18.4989 20.4293 18.6949 20.3136C18.4103 20.1178 18.2054 19.8334 18.121 19.496C18.0291 19.1292 18.0862 18.7487 18.2808 18.4245C18.4751 18.1001 18.7845 17.8709 19.1511 17.7792C19.2656 17.7505 19.3817 17.7363 19.4967 17.7363C19.7224 17.7366 19.9439 17.7938 20.1474 17.9003C20.1599 17.6367 20.2384 17.3778 20.3924 17.1556C20.8149 16.5461 21.6611 16.3774 22.3203 16.773L27.7799 20.0478L27.0762 18.7802C26.8062 18.2963 26.8161 17.6993 27.1023 17.222C27.2418 16.9897 27.4411 16.7967 27.6793 16.6632C27.8751 16.5548 28.0871 16.5034 28.2963 16.5034C28.7456 16.5037 29.1819 16.7407 29.4142 17.1603C30.2237 18.6189 31.7513 21.3697 31.8587 21.5618C31.8816 21.595 31.9506 21.6939 32.0098 21.778C32.0661 21.8579 32.1268 21.9342 32.1898 22.0101C33.5529 23.6626 33.7174 25.8265 32.6183 27.6581L32.6183 27.6581ZM31.6093 22.4896C31.5344 22.3989 31.4609 22.3063 31.394 22.2109C31.1904 21.922 31.1852 21.9145 31.1699 21.8389C30.932 21.4452 30.3515 20.4001 28.7558 17.5253C28.6158 17.2729 28.2978 17.1808 28.0445 17.3208C27.9199 17.3905 27.8197 17.4878 27.7467 17.6096C27.5987 17.8563 27.5931 18.1645 27.7328 18.4147L29.1177 20.9099C29.2003 21.0588 29.1728 21.2444 29.0505 21.3627C28.9285 21.4812 28.7419 21.5019 28.5953 21.4148L21.9331 17.4181C21.6191 17.2298 21.2052 17.3036 21.011 17.5839C20.8993 17.7451 20.8638 17.9373 20.9104 18.1251C20.9533 18.2966 21.061 18.4413 21.2134 18.5327C21.2139 18.5329 21.2141 18.5334 21.2146 18.5336L25.5706 21.1469C25.7487 21.2538 25.8064 21.4847 25.6994 21.6631C25.5925 21.8409 25.3618 21.8991 25.1832 21.7919L19.8354 18.5838C19.6837 18.4929 19.5051 18.466 19.3336 18.5091C19.1616 18.552 19.0169 18.6595 18.9258 18.8119C18.8343 18.9638 18.808 19.1422 18.8504 19.3137C18.8932 19.4852 19.0009 19.6301 19.1531 19.7215L20.1938 20.3456L24.5007 22.9297C24.6788 23.0367 24.7365 23.2675 24.6296 23.4459C24.5226 23.6238 24.292 23.6817 24.1134 23.5748L19.7565 20.9608C19.4431 20.7723 19.0351 20.8746 18.8466 21.1884C18.7552 21.3406 18.7288 21.5189 18.7712 21.6904C18.8141 21.862 18.9218 22.0066 19.0742 22.0983L20.1424 22.7391L23.4311 24.7122C23.6092 24.8192 23.6669 25.0501 23.56 25.2284C23.453 25.4063 23.2223 25.4647 23.0438 25.3573L19.7551 23.3841C19.6033 23.2932 19.4255 23.2663 19.253 23.3095C19.0815 23.3523 18.9364 23.4598 18.8452 23.6117C18.754 23.7639 18.7274 23.9425 18.7698 24.1138C18.8127 24.2853 18.9204 24.43 19.0728 24.5216L25.7398 28.5211C26.8217 29.1702 28.0694 29.3949 29.2516 29.1537C30.4216 28.9148 31.388 28.2464 31.9728 27.2715C32.9178 25.6972 32.7818 23.9095 31.6097 22.4895L31.6093 22.4896Z" fill="#103E13"/>
</svg>
